
<group>
lokey=24
hikey=24
offset=80000
ampeg_decaycc93=0.200
ampeg_releasecc93=0.500
locc83=1
amp_velcurve_63=0.600
amplitude_cc83=100
locc121=64
locc81=1
amplitude_cc81=100

<region>
sample=../Samples/db1_looped_f.flac
trigger=legato
group=9
off_by=9
offset_random=7978
pitch_keycenter=37
eg06_time1_oncc120=0.5
tune_oncc92=-15
pan_oncc82=100

<region>
sample=../Samples/db1_looped_f.flac
trigger=first
group=9
off_by=9
offset_random=7978
pitch_keycenter=37
tune_oncc92=-15
pan_oncc82=100

<region>
sample=../Samples/d1_looped_f.flac
trigger=legato
group=8
off_by=8
offset_random=3543
pitch_keycenter=38
eg06_time1_oncc120=0.5
tune_oncc92=15
pan_oncc82=-100

<region>
sample=../Samples/d1_looped_f.flac
trigger=first
group=8
off_by=8
offset_random=3543
pitch_keycenter=38
tune_oncc92=15
pan_oncc82=-100

//========================
<group>
lokey=25
hikey=25
offset=80000
ampeg_decaycc93=0.200
ampeg_releasecc93=0.500
locc83=1
amp_velcurve_63=0.600
amplitude_cc83=100
locc121=64
locc81=1
amplitude_cc81=100

<region>
sample=../Samples/d1_looped_f.flac
trigger=legato
group=9
off_by=9
offset_random=3543
pitch_keycenter=38
eg06_time1_oncc120=0.5
tune_oncc92=-15
pan_oncc82=100

<region>
sample=../Samples/d1_looped_f.flac
trigger=first
group=9
off_by=9
offset_random=3543
pitch_keycenter=38
tune_oncc92=-15
pan_oncc82=100

<region>
sample=../Samples/eb1_looped_f.flac
trigger=legato
group=8
off_by=8
offset_random=5962
pitch_keycenter=39
eg06_time1_oncc120=0.5
tune_oncc92=15
pan_oncc82=-100

<region>
sample=../Samples/eb1_looped_f.flac
trigger=first
group=8
off_by=8
offset_random=5962
pitch_keycenter=39
tune_oncc92=15
pan_oncc82=-100

//========================
<group>
lokey=26
hikey=26
offset=80000
ampeg_decaycc93=0.200
ampeg_releasecc93=0.500
locc83=1
amp_velcurve_63=0.600
amplitude_cc83=100
locc121=64
locc81=1
amplitude_cc81=100

<region>
sample=../Samples/eb1_looped_f.flac
trigger=legato
group=9
off_by=9
offset_random=5962
pitch_keycenter=39
eg06_time1_oncc120=0.5
tune_oncc92=-15
pan_oncc82=100

<region>
sample=../Samples/eb1_looped_f.flac
trigger=first
group=9
off_by=9
offset_random=5962
pitch_keycenter=39
tune_oncc92=-15
pan_oncc82=100

<region>
sample=../Samples/e1_looped_f.flac
trigger=legato
group=8
off_by=8
offset_random=4856
pitch_keycenter=40
eg06_time1_oncc120=0.5
tune_oncc92=15
pan_oncc82=-100

<region>
sample=../Samples/e1_looped_f.flac
trigger=first
group=8
off_by=8
offset_random=4856
pitch_keycenter=40
tune_oncc92=15
pan_oncc82=-100

//========================
<group>
lokey=27
hikey=27
offset=80000
ampeg_decaycc93=0.200
ampeg_releasecc93=0.500
locc83=1
amp_velcurve_63=0.600
amplitude_cc83=100
locc121=64
locc81=1
amplitude_cc81=100

<region>
sample=../Samples/db1_looped_f.flac
trigger=legato
group=9
off_by=9
offset_random=7978
pitch_keycenter=37
eg06_time1_oncc120=0.5
tune_oncc92=-15
pan_oncc82=100

<region>
sample=../Samples/db1_looped_f.flac
trigger=first
group=9
off_by=9
offset_random=7978
pitch_keycenter=37
tune_oncc92=-15
pan_oncc82=100

<region>
sample=../Samples/d1_looped_f.flac
trigger=legato
group=8
off_by=8
offset_random=3543
pitch_keycenter=38
eg06_time1_oncc120=0.5
tune_oncc92=15
pan_oncc82=-100

<region>
sample=../Samples/d1_looped_f.flac
trigger=first
group=8
off_by=8
offset_random=3543
pitch_keycenter=38
tune_oncc92=15
pan_oncc82=-100

//========================
<group>
lokey=28
hikey=28
offset=80000
ampeg_decaycc93=0.200
ampeg_releasecc93=0.500
locc83=1
amp_velcurve_63=0.600
amplitude_cc83=100
locc121=64
locc81=1
amplitude_cc81=100

<region>
sample=../Samples/d1_looped_f.flac
trigger=legato
group=9
off_by=9
offset_random=3543
pitch_keycenter=38
eg06_time1_oncc120=0.5
tune_oncc92=-15
pan_oncc82=100

<region>
sample=../Samples/d1_looped_f.flac
trigger=first
group=9
off_by=9
offset_random=3543
pitch_keycenter=38
tune_oncc92=-15
pan_oncc82=100

<region>
sample=../Samples/eb1_looped_f.flac
trigger=legato
group=8
off_by=8
offset_random=5962
pitch_keycenter=39
eg06_time1_oncc120=0.5
tune_oncc92=15
pan_oncc82=-100

<region>
sample=../Samples/eb1_looped_f.flac
trigger=first
group=8
off_by=8
offset_random=5962
pitch_keycenter=39
tune_oncc92=15
pan_oncc82=-100

//========================
<group>
lokey=29
hikey=29
offset=80000
ampeg_decaycc93=0.200
ampeg_releasecc93=0.500
locc83=1
amp_velcurve_63=0.600
amplitude_cc83=100
locc121=64
locc81=1
amplitude_cc81=100

<region>
sample=../Samples/eb1_looped_f.flac
trigger=legato
group=9
off_by=9
offset_random=5962
pitch_keycenter=39
eg06_time1_oncc120=0.5
tune_oncc92=-15
pan_oncc82=100

<region>
sample=../Samples/eb1_looped_f.flac
trigger=first
group=9
off_by=9
offset_random=5962
pitch_keycenter=39
tune_oncc92=-15
pan_oncc82=100

<region>
sample=../Samples/e1_looped_f.flac
trigger=legato
group=8
off_by=8
offset_random=4856
pitch_keycenter=40
eg06_time1_oncc120=0.5
tune_oncc92=15
pan_oncc82=-100

<region>
sample=../Samples/e1_looped_f.flac
trigger=first
group=8
off_by=8
offset_random=4856
pitch_keycenter=40
tune_oncc92=15
pan_oncc82=-100

//========================
<group>
lokey=30
hikey=30
offset=80000
ampeg_decaycc93=0.200
ampeg_releasecc93=0.500
locc83=1
amp_velcurve_63=0.600
amplitude_cc83=100
locc121=64
locc81=1
amplitude_cc81=100

<region>
sample=../Samples/db1_looped_f.flac
trigger=legato
group=9
off_by=9
offset_random=7978
pitch_keycenter=37
eg06_time1_oncc120=0.5
tune_oncc92=-15
pan_oncc82=100

<region>
sample=../Samples/db1_looped_f.flac
trigger=first
group=9
off_by=9
offset_random=7978
pitch_keycenter=37
tune_oncc92=-15
pan_oncc82=100

<region>
sample=../Samples/d1_looped_f.flac
trigger=legato
group=8
off_by=8
offset_random=3543
pitch_keycenter=38
eg06_time1_oncc120=0.5
tune_oncc92=15
pan_oncc82=-100

<region>
sample=../Samples/d1_looped_f.flac
trigger=first
group=8
off_by=8
offset_random=3543
pitch_keycenter=38
tune_oncc92=15
pan_oncc82=-100

//========================
<group>
lokey=31
hikey=31
offset=80000
ampeg_decaycc93=0.200
ampeg_releasecc93=0.500
locc83=1
amp_velcurve_63=0.600
amplitude_cc83=100
locc121=64
locc81=1
amplitude_cc81=100

<region>
sample=../Samples/d1_looped_f.flac
trigger=legato
group=9
off_by=9
offset_random=3543
pitch_keycenter=38
eg06_time1_oncc120=0.5
tune_oncc92=-15
pan_oncc82=100

<region>
sample=../Samples/d1_looped_f.flac
trigger=first
group=9
off_by=9
offset_random=3543
pitch_keycenter=38
tune_oncc92=-15
pan_oncc82=100

<region>
sample=../Samples/eb1_looped_f.flac
trigger=legato
group=8
off_by=8
offset_random=5962
pitch_keycenter=39
eg06_time1_oncc120=0.5
tune_oncc92=15
pan_oncc82=-100

<region>
sample=../Samples/eb1_looped_f.flac
trigger=first
group=8
off_by=8
offset_random=5962
pitch_keycenter=39
tune_oncc92=15
pan_oncc82=-100

//========================
<group>
lokey=32
hikey=32
offset=80000
ampeg_decaycc93=0.200
ampeg_releasecc93=0.500
locc83=1
amp_velcurve_63=0.600
amplitude_cc83=100
locc121=64
locc81=1
amplitude_cc81=100

<region>
sample=../Samples/eb1_looped_f.flac
trigger=legato
group=9
off_by=9
offset_random=5962
pitch_keycenter=39
eg06_time1_oncc120=0.5
tune_oncc92=-15
pan_oncc82=100

<region>
sample=../Samples/eb1_looped_f.flac
trigger=first
group=9
off_by=9
offset_random=5962
pitch_keycenter=39
tune_oncc92=-15
pan_oncc82=100

<region>
sample=../Samples/e1_looped_f.flac
trigger=legato
group=8
off_by=8
offset_random=4856
pitch_keycenter=40
eg06_time1_oncc120=0.5
tune_oncc92=15
pan_oncc82=-100

<region>
sample=../Samples/e1_looped_f.flac
trigger=first
group=8
off_by=8
offset_random=4856
pitch_keycenter=40
tune_oncc92=15
pan_oncc82=-100

//========================
<group>
lokey=33
hikey=33
offset=80000
ampeg_decaycc93=0.200
ampeg_releasecc93=0.500
locc83=1
amp_velcurve_63=0.600
amplitude_cc83=100
locc121=64
locc81=1
amplitude_cc81=100

<region>
sample=../Samples/db1_looped_f.flac
trigger=legato
group=9
off_by=9
offset_random=7978
pitch_keycenter=37
eg06_time1_oncc120=0.5
tune_oncc92=-15
pan_oncc82=100

<region>
sample=../Samples/db1_looped_f.flac
trigger=first
group=9
off_by=9
offset_random=7978
pitch_keycenter=37
tune_oncc92=-15
pan_oncc82=100

<region>
sample=../Samples/d1_looped_f.flac
trigger=legato
group=8
off_by=8
offset_random=3543
pitch_keycenter=38
eg06_time1_oncc120=0.5
tune_oncc92=15
pan_oncc82=-100

<region>
sample=../Samples/d1_looped_f.flac
trigger=first
group=8
off_by=8
offset_random=3543
pitch_keycenter=38
tune_oncc92=15
pan_oncc82=-100

//========================
<group>
lokey=34
hikey=34
offset=80000
ampeg_decaycc93=0.200
ampeg_releasecc93=0.500
locc83=1
amp_velcurve_63=0.600
amplitude_cc83=100
locc121=64
locc81=1
amplitude_cc81=100

<region>
sample=../Samples/d1_looped_f.flac
trigger=legato
group=9
off_by=9
offset_random=3543
pitch_keycenter=38
eg06_time1_oncc120=0.5
tune_oncc92=-15
pan_oncc82=100

<region>
sample=../Samples/d1_looped_f.flac
trigger=first
group=9
off_by=9
offset_random=3543
pitch_keycenter=38
tune_oncc92=-15
pan_oncc82=100

<region>
sample=../Samples/eb1_looped_f.flac
trigger=legato
group=8
off_by=8
offset_random=5962
pitch_keycenter=39
eg06_time1_oncc120=0.5
tune_oncc92=15
pan_oncc82=-100

<region>
sample=../Samples/eb1_looped_f.flac
trigger=first
group=8
off_by=8
offset_random=5962
pitch_keycenter=39
tune_oncc92=15
pan_oncc82=-100

//========================
<group>
lokey=35
hikey=35
offset=80000
ampeg_decaycc93=0.200
ampeg_releasecc93=0.500
locc83=1
amp_velcurve_63=0.600
amplitude_cc83=100
locc121=64
locc81=1
amplitude_cc81=100

<region>
sample=../Samples/eb1_looped_f.flac
trigger=legato
group=9
off_by=9
offset_random=5962
pitch_keycenter=39
eg06_time1_oncc120=0.5
tune_oncc92=-15
pan_oncc82=100

<region>
sample=../Samples/eb1_looped_f.flac
trigger=first
group=9
off_by=9
offset_random=5962
pitch_keycenter=39
tune_oncc92=-15
pan_oncc82=100

<region>
sample=../Samples/e1_looped_f.flac
trigger=legato
group=8
off_by=8
offset_random=4856
pitch_keycenter=40
eg06_time1_oncc120=0.5
tune_oncc92=15
pan_oncc82=-100

<region>
sample=../Samples/e1_looped_f.flac
trigger=first
group=8
off_by=8
offset_random=4856
pitch_keycenter=40
tune_oncc92=15
pan_oncc82=-100

//========================
<group>
lokey=36
hikey=36
offset=80000
ampeg_decaycc93=0.200
ampeg_releasecc93=0.500
locc83=1
amp_velcurve_63=0.600
amplitude_cc83=100
locc121=64
locc81=1
amplitude_cc81=100

<region>
sample=../Samples/db1_looped_f.flac
trigger=legato
group=9
off_by=9
offset_random=7978
pitch_keycenter=37
eg06_time1_oncc120=0.5
tune_oncc92=-15
pan_oncc82=100

<region>
sample=../Samples/db1_looped_f.flac
trigger=first
group=9
off_by=9
offset_random=7978
pitch_keycenter=37
tune_oncc92=-15
pan_oncc82=100

<region>
sample=../Samples/d1_looped_f.flac
trigger=legato
group=8
off_by=8
offset_random=3543
pitch_keycenter=38
eg06_time1_oncc120=0.5
tune_oncc92=15
pan_oncc82=-100

<region>
sample=../Samples/d1_looped_f.flac
trigger=first
group=8
off_by=8
offset_random=3543
pitch_keycenter=38
tune_oncc92=15
pan_oncc82=-100

//========================
<group>
lokey=37
hikey=37
offset=80000
ampeg_decaycc93=0.200
ampeg_releasecc93=0.500
locc83=1
amp_velcurve_63=0.600
amplitude_cc83=100
locc121=64
locc81=1
amplitude_cc81=100

<region>
sample=../Samples/d1_looped_f.flac
trigger=legato
group=9
off_by=9
offset_random=3543
pitch_keycenter=38
eg06_time1_oncc120=0.5
tune_oncc92=-15
pan_oncc82=100

<region>
sample=../Samples/d1_looped_f.flac
trigger=first
group=9
off_by=9
offset_random=3543
pitch_keycenter=38
tune_oncc92=-15
pan_oncc82=100

<region>
sample=../Samples/eb1_looped_f.flac
trigger=legato
group=8
off_by=8
offset_random=5962
pitch_keycenter=39
eg06_time1_oncc120=0.5
tune_oncc92=15
pan_oncc82=-100

<region>
sample=../Samples/eb1_looped_f.flac
trigger=first
group=8
off_by=8
offset_random=5962
pitch_keycenter=39
tune_oncc92=15
pan_oncc82=-100

//========================
<group>
lokey=38
hikey=38
offset=80000
ampeg_decaycc93=0.200
ampeg_releasecc93=0.500
locc83=1
amp_velcurve_63=0.600
amplitude_cc83=100
locc121=64
locc81=1
amplitude_cc81=100

<region>
sample=../Samples/eb1_looped_f.flac
trigger=legato
group=9
off_by=9
offset_random=5962
pitch_keycenter=39
eg06_time1_oncc120=0.5
tune_oncc92=-15
pan_oncc82=100

<region>
sample=../Samples/eb1_looped_f.flac
trigger=first
group=9
off_by=9
offset_random=5962
pitch_keycenter=39
tune_oncc92=-15
pan_oncc82=100

<region>
sample=../Samples/e1_looped_f.flac
trigger=legato
group=8
off_by=8
offset_random=4856
pitch_keycenter=40
eg06_time1_oncc120=0.5
tune_oncc92=15
pan_oncc82=-100

<region>
sample=../Samples/e1_looped_f.flac
trigger=first
group=8
off_by=8
offset_random=4856
pitch_keycenter=40
tune_oncc92=15
pan_oncc82=-100

//========================
<group>
lokey=39
hikey=39
offset=80000
ampeg_decaycc93=0.200
ampeg_releasecc93=0.500
locc83=1
amp_velcurve_63=0.600
amplitude_cc83=100
locc121=64
locc81=1
amplitude_cc81=100

<region>
sample=../Samples/e1_looped_f.flac
trigger=legato
group=9
off_by=9
offset_random=4856
pitch_keycenter=40
eg06_time1_oncc120=0.5
tune_oncc92=-15
pan_oncc82=100

<region>
sample=../Samples/e1_looped_f.flac
trigger=first
group=9
off_by=9
offset_random=4856
pitch_keycenter=40
tune_oncc92=-15
pan_oncc82=100

<region>
sample=../Samples/f1_looped_f.flac
trigger=legato
group=8
off_by=8
offset_random=10807
pitch_keycenter=41
eg06_time1_oncc120=0.5
tune_oncc92=15
pan_oncc82=-100

<region>
sample=../Samples/f1_looped_f.flac
trigger=first
group=8
off_by=8
offset_random=10807
pitch_keycenter=41
tune_oncc92=15
pan_oncc82=-100

//========================
<group>
lokey=40
hikey=40
offset=80000
ampeg_decaycc93=0.200
ampeg_releasecc93=0.500
locc83=1
amp_velcurve_63=0.600
amplitude_cc83=100
locc121=64
locc81=1
amplitude_cc81=100

<region>
sample=../Samples/f1_looped_f.flac
trigger=legato
group=9
off_by=9
offset_random=10807
pitch_keycenter=41
eg06_time1_oncc120=0.5
tune_oncc92=-15
pan_oncc82=100

<region>
sample=../Samples/f1_looped_f.flac
trigger=first
group=9
off_by=9
offset_random=10807
pitch_keycenter=41
tune_oncc92=-15
pan_oncc82=100

<region>
sample=../Samples/gb1_looped_f.flac
trigger=legato
group=8
off_by=8
offset_random=3437
pitch_keycenter=42
eg06_time1_oncc120=0.5
tune_oncc92=15
pan_oncc82=-100

<region>
sample=../Samples/gb1_looped_f.flac
trigger=first
group=8
off_by=8
offset_random=3437
pitch_keycenter=42
tune_oncc92=15
pan_oncc82=-100

//========================
<group>
lokey=41
hikey=41
offset=80000
ampeg_decaycc93=0.200
ampeg_releasecc93=0.500
locc83=1
amp_velcurve_63=0.600
amplitude_cc83=100
locc121=64
locc81=1
amplitude_cc81=100

<region>
sample=../Samples/gb1_looped_f.flac
trigger=legato
group=9
off_by=9
offset_random=3437
pitch_keycenter=42
eg06_time1_oncc120=0.5
tune_oncc92=-15
pan_oncc82=100

<region>
sample=../Samples/gb1_looped_f.flac
trigger=first
group=9
off_by=9
offset_random=3437
pitch_keycenter=42
tune_oncc92=-15
pan_oncc82=100

<region>
sample=../Samples/g1_looped_f.flac
trigger=legato
group=8
off_by=8
offset_random=8563
pitch_keycenter=43
eg06_time1_oncc120=0.5
tune_oncc92=15
pan_oncc82=-100

<region>
sample=../Samples/g1_looped_f.flac
trigger=first
group=8
off_by=8
offset_random=8563
pitch_keycenter=43
tune_oncc92=15
pan_oncc82=-100

//========================
<group>
lokey=42
hikey=42
offset=80000
ampeg_decaycc93=0.200
ampeg_releasecc93=0.500
locc83=1
amp_velcurve_63=0.600
amplitude_cc83=100
locc121=64
locc81=1
amplitude_cc81=100

<region>
sample=../Samples/g1_looped_f.flac
trigger=legato
group=9
off_by=9
offset_random=8563
pitch_keycenter=43
eg06_time1_oncc120=0.5
tune_oncc92=-15
pan_oncc82=100

<region>
sample=../Samples/g1_looped_f.flac
trigger=first
group=9
off_by=9
offset_random=8563
pitch_keycenter=43
tune_oncc92=-15
pan_oncc82=100

<region>
sample=../Samples/ab1_looped_f.flac
trigger=legato
group=8
off_by=8
offset_random=9672
pitch_keycenter=44
eg06_time1_oncc120=0.5
tune_oncc92=15
pan_oncc82=-100

<region>
sample=../Samples/ab1_looped_f.flac
trigger=first
group=8
off_by=8
offset_random=9672
pitch_keycenter=44
tune_oncc92=15
pan_oncc82=-100

//========================
<group>
lokey=43
hikey=43
offset=80000
ampeg_decaycc93=0.200
ampeg_releasecc93=0.500
locc83=1
amp_velcurve_63=0.600
amplitude_cc83=100
locc121=64
locc81=1
amplitude_cc81=100

<region>
sample=../Samples/ab1_looped_f.flac
trigger=legato
group=9
off_by=9
offset_random=9672
pitch_keycenter=44
eg06_time1_oncc120=0.5
tune_oncc92=-15
pan_oncc82=100

<region>
sample=../Samples/ab1_looped_f.flac
trigger=first
group=9
off_by=9
offset_random=9672
pitch_keycenter=44
tune_oncc92=-15
pan_oncc82=100

<region>
sample=../Samples/a1_looped_f.flac
trigger=legato
group=8
off_by=8
offset_random=5562
pitch_keycenter=45
eg06_time1_oncc120=0.5
tune_oncc92=15
pan_oncc82=-100

<region>
sample=../Samples/a1_looped_f.flac
trigger=first
group=8
off_by=8
offset_random=5562
pitch_keycenter=45
tune_oncc92=15
pan_oncc82=-100

//========================
<group>
lokey=44
hikey=44
offset=80000
ampeg_decaycc93=0.200
ampeg_releasecc93=0.500
locc83=1
amp_velcurve_63=0.600
amplitude_cc83=100
locc121=64
locc81=1
amplitude_cc81=100

<region>
sample=../Samples/a1_looped_f.flac
trigger=legato
group=9
off_by=9
offset_random=5562
pitch_keycenter=45
eg06_time1_oncc120=0.5
tune_oncc92=-15
pan_oncc82=100

<region>
sample=../Samples/a1_looped_f.flac
trigger=first
group=9
off_by=9
offset_random=5562
pitch_keycenter=45
tune_oncc92=-15
pan_oncc82=100

<region>
sample=../Samples/bb1_looped_f.flac
trigger=legato
group=8
off_by=8
offset_random=8643
pitch_keycenter=46
eg06_time1_oncc120=0.5
tune_oncc92=15
pan_oncc82=-100

<region>
sample=../Samples/bb1_looped_f.flac
trigger=first
group=8
off_by=8
offset_random=8643
pitch_keycenter=46
tune_oncc92=15
pan_oncc82=-100

//========================
<group>
lokey=45
hikey=45
offset=80000
ampeg_decaycc93=0.200
ampeg_releasecc93=0.500
locc83=1
amp_velcurve_63=0.600
amplitude_cc83=100
locc121=64
locc81=1
amplitude_cc81=100

<region>
sample=../Samples/bb1_looped_f.flac
trigger=legato
group=9
off_by=9
offset_random=8643
pitch_keycenter=46
eg06_time1_oncc120=0.5
tune_oncc92=-15
pan_oncc82=100

<region>
sample=../Samples/bb1_looped_f.flac
trigger=first
group=9
off_by=9
offset_random=8643
pitch_keycenter=46
tune_oncc92=-15
pan_oncc82=100

<region>
sample=../Samples/b1_looped_f.flac
trigger=legato
group=8
off_by=8
offset_random=4856
pitch_keycenter=47
eg06_time1_oncc120=0.5
tune_oncc92=15
pan_oncc82=-100

<region>
sample=../Samples/b1_looped_f.flac
trigger=first
group=8
off_by=8
offset_random=4856
pitch_keycenter=47
tune_oncc92=15
pan_oncc82=-100

//========================
<group>
lokey=46
hikey=46
offset=80000
ampeg_decaycc93=0.200
ampeg_releasecc93=0.500
locc83=1
amp_velcurve_63=0.600
amplitude_cc83=100
locc121=64
locc81=1
amplitude_cc81=100

<region>
sample=../Samples/b1_looped_f.flac
trigger=legato
group=9
off_by=9
offset_random=4856
pitch_keycenter=47
eg06_time1_oncc120=0.5
tune_oncc92=-15
pan_oncc82=100

<region>
sample=../Samples/b1_looped_f.flac
trigger=first
group=9
off_by=9
offset_random=4856
pitch_keycenter=47
tune_oncc92=-15
pan_oncc82=100

<region>
sample=../Samples/c2_looped_f.flac
trigger=legato
group=8
off_by=8
offset_random=9432
pitch_keycenter=48
eg06_time1_oncc120=0.5
tune_oncc92=15
pan_oncc82=-100

<region>
sample=../Samples/c2_looped_f.flac
trigger=first
group=8
off_by=8
offset_random=9432
pitch_keycenter=48
tune_oncc92=15
pan_oncc82=-100

//========================
<group>
lokey=47
hikey=47
offset=80000
ampeg_decaycc93=0.200
ampeg_releasecc93=0.500
locc83=1
amp_velcurve_63=0.600
amplitude_cc83=100
locc121=64
locc81=1
amplitude_cc81=100

<region>
sample=../Samples/c2_looped_f.flac
trigger=legato
group=9
off_by=9
offset_random=9432
pitch_keycenter=48
eg06_time1_oncc120=0.5
tune_oncc92=-15
pan_oncc82=100

<region>
sample=../Samples/c2_looped_f.flac
trigger=first
group=9
off_by=9
offset_random=9432
pitch_keycenter=48
tune_oncc92=-15
pan_oncc82=100

<region>
sample=../Samples/db2_looped_f.flac
trigger=legato
group=8
off_by=8
offset_random=7539
pitch_keycenter=49
eg06_time1_oncc120=0.5
tune_oncc92=15
pan_oncc82=-100

<region>
sample=../Samples/db2_looped_f.flac
trigger=first
group=8
off_by=8
offset_random=7539
pitch_keycenter=49
tune_oncc92=15
pan_oncc82=-100

//========================
<group>
lokey=48
hikey=48
offset=80000
ampeg_decaycc93=0.200
ampeg_releasecc93=0.500
locc83=1
amp_velcurve_63=0.600
amplitude_cc83=100
locc121=64
locc81=1
amplitude_cc81=100

<region>
sample=../Samples/db2_looped_f.flac
trigger=legato
group=9
off_by=9
offset_random=7539
pitch_keycenter=49
eg06_time1_oncc120=0.5
tune_oncc92=-15
pan_oncc82=100

<region>
sample=../Samples/db2_looped_f.flac
trigger=first
group=9
off_by=9
offset_random=7539
pitch_keycenter=49
tune_oncc92=-15
pan_oncc82=100

<region>
sample=../Samples/d2_looped_f.flac
trigger=legato
group=8
off_by=8
offset_random=9583
pitch_keycenter=50
eg06_time1_oncc120=0.5
tune_oncc92=15
pan_oncc82=-100

<region>
sample=../Samples/d2_looped_f.flac
trigger=first
group=8
off_by=8
offset_random=9583
pitch_keycenter=50
tune_oncc92=15
pan_oncc82=-100

//========================
<group>
lokey=49
hikey=49
offset=80000
ampeg_decaycc93=0.200
ampeg_releasecc93=0.500
locc83=1
amp_velcurve_63=0.600
amplitude_cc83=100
locc121=64
locc81=1
amplitude_cc81=100

<region>
sample=../Samples/d2_looped_f.flac
trigger=legato
group=9
off_by=9
offset_random=9583
pitch_keycenter=50
eg06_time1_oncc120=0.5
tune_oncc92=-15
pan_oncc82=100

<region>
sample=../Samples/d2_looped_f.flac
trigger=first
group=9
off_by=9
offset_random=9583
pitch_keycenter=50
tune_oncc92=-15
pan_oncc82=100

<region>
sample=../Samples/eb2_looped_f.flac
trigger=legato
group=8
off_by=8
offset_random=3346
pitch_keycenter=51
eg06_time1_oncc120=0.5
tune_oncc92=15
pan_oncc82=-100

<region>
sample=../Samples/eb2_looped_f.flac
trigger=first
group=8
off_by=8
offset_random=3346
pitch_keycenter=51
tune_oncc92=15
pan_oncc82=-100

//========================
<group>
lokey=50
hikey=50
offset=80000
ampeg_decaycc93=0.200
ampeg_releasecc93=0.500
locc83=1
amp_velcurve_63=0.600
amplitude_cc83=100
locc121=64
locc81=1
amplitude_cc81=100

<region>
sample=../Samples/eb2_looped_f.flac
trigger=legato
group=9
off_by=9
offset_random=3346
pitch_keycenter=51
eg06_time1_oncc120=0.5
tune_oncc92=-15
pan_oncc82=100

<region>
sample=../Samples/eb2_looped_f.flac
trigger=first
group=9
off_by=9
offset_random=3346
pitch_keycenter=51
tune_oncc92=-15
pan_oncc82=100

<region>
sample=../Samples/e2_looped_f.flac
trigger=legato
group=8
off_by=8
offset_random=10635
pitch_keycenter=52
eg06_time1_oncc120=0.5
tune_oncc92=15
pan_oncc82=-100

<region>
sample=../Samples/e2_looped_f.flac
trigger=first
group=8
off_by=8
offset_random=10635
pitch_keycenter=52
tune_oncc92=15
pan_oncc82=-100

//========================
<group>
lokey=51
hikey=51
offset=80000
ampeg_decaycc93=0.200
ampeg_releasecc93=0.500
locc83=1
amp_velcurve_63=0.600
amplitude_cc83=100
locc121=64
locc81=1
amplitude_cc81=100

<region>
sample=../Samples/e2_looped_f.flac
trigger=legato
group=9
off_by=9
offset_random=10635
pitch_keycenter=52
eg06_time1_oncc120=0.5
tune_oncc92=-15
pan_oncc82=100

<region>
sample=../Samples/e2_looped_f.flac
trigger=first
group=9
off_by=9
offset_random=10635
pitch_keycenter=52
tune_oncc92=-15
pan_oncc82=100

<region>
sample=../Samples/f2_looped_f.flac
trigger=legato
group=8
off_by=8
offset_random=4584
pitch_keycenter=53
eg06_time1_oncc120=0.5
tune_oncc92=15
pan_oncc82=-100

<region>
sample=../Samples/f2_looped_f.flac
trigger=first
group=8
off_by=8
offset_random=4584
pitch_keycenter=53
tune_oncc92=15
pan_oncc82=-100

//========================
<group>
lokey=52
hikey=52
offset=80000
ampeg_decaycc93=0.200
ampeg_releasecc93=0.500
locc83=1
amp_velcurve_63=0.600
amplitude_cc83=100
locc121=64
locc81=1
amplitude_cc81=100

<region>
sample=../Samples/f2_looped_f.flac
trigger=legato
group=9
off_by=9
offset_random=4584
pitch_keycenter=53
eg06_time1_oncc120=0.5
tune_oncc92=-15
pan_oncc82=100

<region>
sample=../Samples/f2_looped_f.flac
trigger=first
group=9
off_by=9
offset_random=4584
pitch_keycenter=53
tune_oncc92=-15
pan_oncc82=100

<region>
sample=../Samples/gb2_looped_f.flac
trigger=legato
group=8
off_by=8
offset_random=5567
pitch_keycenter=54
eg06_time1_oncc120=0.5
tune_oncc92=15
pan_oncc82=-100

<region>
sample=../Samples/gb2_looped_f.flac
trigger=first
group=8
off_by=8
offset_random=5567
pitch_keycenter=54
tune_oncc92=15
pan_oncc82=-100

//========================
<group>
lokey=53
hikey=53
offset=80000
ampeg_decaycc93=0.200
ampeg_releasecc93=0.500
locc83=1
amp_velcurve_63=0.600
amplitude_cc83=100
locc121=64
locc81=1
amplitude_cc81=100

<region>
sample=../Samples/gb2_looped_f.flac
trigger=legato
group=9
off_by=9
offset_random=5567
pitch_keycenter=54
eg06_time1_oncc120=0.5
tune_oncc92=-15
pan_oncc82=100

<region>
sample=../Samples/gb2_looped_f.flac
trigger=first
group=9
off_by=9
offset_random=5567
pitch_keycenter=54
tune_oncc92=-15
pan_oncc82=100

<region>
sample=../Samples/g2_looped_f.flac
trigger=legato
group=8
off_by=8
offset_random=8653
pitch_keycenter=55
eg06_time1_oncc120=0.5
tune_oncc92=15
pan_oncc82=-100

<region>
sample=../Samples/g2_looped_f.flac
trigger=first
group=8
off_by=8
offset_random=8653
pitch_keycenter=55
tune_oncc92=15
pan_oncc82=-100

//========================
<group>
lokey=54
hikey=54
offset=80000
ampeg_decaycc93=0.200
ampeg_releasecc93=0.500
locc83=1
amp_velcurve_63=0.600
amplitude_cc83=100
locc121=64
locc81=1
amplitude_cc81=100

<region>
sample=../Samples/g2_looped_f.flac
trigger=legato
group=9
off_by=9
offset_random=8653
pitch_keycenter=55
eg06_time1_oncc120=0.5
tune_oncc92=-15
pan_oncc82=100

<region>
sample=../Samples/g2_looped_f.flac
trigger=first
group=9
off_by=9
offset_random=8653
pitch_keycenter=55
tune_oncc92=-15
pan_oncc82=100

<region>
sample=../Samples/ab2_looped_f.flac
trigger=legato
group=8
off_by=8
offset_random=6434
pitch_keycenter=56
eg06_time1_oncc120=0.5
tune_oncc92=15
pan_oncc82=-100

<region>
sample=../Samples/ab2_looped_f.flac
trigger=first
group=8
off_by=8
offset_random=6434
pitch_keycenter=56
tune_oncc92=15
pan_oncc82=-100

//========================
<group>
lokey=55
hikey=55
offset=80000
ampeg_decaycc93=0.200
ampeg_releasecc93=0.500
locc83=1
amp_velcurve_63=0.600
amplitude_cc83=100
locc121=64
locc81=1
amplitude_cc81=100

<region>
sample=../Samples/ab2_looped_f.flac
trigger=legato
group=9
off_by=9
offset_random=6434
pitch_keycenter=56
eg06_time1_oncc120=0.5
tune_oncc92=-15
pan_oncc82=100

<region>
sample=../Samples/ab2_looped_f.flac
trigger=first
group=9
off_by=9
offset_random=6434
pitch_keycenter=56
tune_oncc92=-15
pan_oncc82=100

<region>
sample=../Samples/a2_looped_f.flac
trigger=legato
group=8
off_by=8
offset_random=8946
pitch_keycenter=57
eg06_time1_oncc120=0.5
tune_oncc92=15
pan_oncc82=-100

<region>
sample=../Samples/a2_looped_f.flac
trigger=first
group=8
off_by=8
offset_random=8946
pitch_keycenter=57
tune_oncc92=15
pan_oncc82=-100

//========================
<group>
lokey=56
hikey=56
offset=80000
ampeg_decaycc93=0.200
ampeg_releasecc93=0.500
locc83=1
amp_velcurve_63=0.600
amplitude_cc83=100
locc121=64
locc81=1
amplitude_cc81=100

<region>
sample=../Samples/a2_looped_f.flac
trigger=legato
group=9
off_by=9
offset_random=8946
pitch_keycenter=57
eg06_time1_oncc120=0.5
tune_oncc92=-15
pan_oncc82=100

<region>
sample=../Samples/a2_looped_f.flac
trigger=first
group=9
off_by=9
offset_random=8946
pitch_keycenter=57
tune_oncc92=-15
pan_oncc82=100

<region>
sample=../Samples/bb2_looped_f.flac
trigger=legato
group=8
off_by=8
offset_random=5836
pitch_keycenter=58
eg06_time1_oncc120=0.5
tune_oncc92=15
pan_oncc82=-100

<region>
sample=../Samples/bb2_looped_f.flac
trigger=first
group=8
off_by=8
offset_random=5836
pitch_keycenter=58
tune_oncc92=15
pan_oncc82=-100

//========================
<group>
lokey=57
hikey=57
offset=80000
ampeg_decaycc93=0.200
ampeg_releasecc93=0.500
locc83=1
amp_velcurve_63=0.600
amplitude_cc83=100
locc121=64
locc81=1
amplitude_cc81=100

<region>
sample=../Samples/bb2_looped_f.flac
trigger=legato
group=9
off_by=9
offset_random=5836
pitch_keycenter=58
eg06_time1_oncc120=0.5
tune_oncc92=-15
pan_oncc82=100

<region>
sample=../Samples/bb2_looped_f.flac
trigger=first
group=9
off_by=9
offset_random=5836
pitch_keycenter=58
tune_oncc92=-15
pan_oncc82=100

<region>
sample=../Samples/b2_looped_f.flac
trigger=legato
group=8
off_by=8
offset_random=7543
pitch_keycenter=59
eg06_time1_oncc120=0.5
tune_oncc92=15
pan_oncc82=-100

<region>
sample=../Samples/b2_looped_f.flac
trigger=first
group=8
off_by=8
offset_random=7543
pitch_keycenter=59
tune_oncc92=15
pan_oncc82=-100

//========================
<group>
lokey=58
hikey=58
offset=80000
ampeg_decaycc93=0.200
ampeg_releasecc93=0.500
locc83=1
amp_velcurve_63=0.600
amplitude_cc83=100
locc121=64
locc81=1
amplitude_cc81=100

<region>
sample=../Samples/b2_looped_f.flac
trigger=legato
group=9
off_by=9
offset_random=7543
pitch_keycenter=59
eg06_time1_oncc120=0.5
tune_oncc92=-15
pan_oncc82=100

<region>
sample=../Samples/b2_looped_f.flac
trigger=first
group=9
off_by=9
offset_random=7543
pitch_keycenter=59
tune_oncc92=-15
pan_oncc82=100

<region>
sample=../Samples/c3_looped_f.flac
trigger=legato
group=8
off_by=8
offset_random=2354
eg06_time1_oncc120=0.5
tune_oncc92=15
pan_oncc82=-100

<region>
sample=../Samples/c3_looped_f.flac
trigger=first
group=8
off_by=8
offset_random=2354
tune_oncc92=15
pan_oncc82=-100

//========================
<group>
lokey=59
hikey=59
offset=80000
ampeg_decaycc93=0.200
ampeg_releasecc93=0.500
locc83=1
amp_velcurve_63=0.600
amplitude_cc83=100
locc121=64
locc81=1
amplitude_cc81=100

<region>
sample=../Samples/c3_looped_f.flac
trigger=legato
group=9
off_by=9
offset_random=2354
eg06_time1_oncc120=0.5
tune_oncc92=-15
pan_oncc82=100

<region>
sample=../Samples/c3_looped_f.flac
trigger=first
group=9
off_by=9
offset_random=2354
tune_oncc92=-15
pan_oncc82=100

<region>
sample=../Samples/db3_looped_f.flac
trigger=legato
group=8
off_by=8
offset_random=7432
pitch_keycenter=61
eg06_time1_oncc120=0.5
tune_oncc92=15
pan_oncc82=-100

<region>
sample=../Samples/db3_looped_f.flac
trigger=first
group=8
off_by=8
offset_random=7432
pitch_keycenter=61
tune_oncc92=15
pan_oncc82=-100

//========================
<group>
lokey=60
hikey=60
offset=80000
ampeg_decaycc93=0.200
ampeg_releasecc93=0.500
locc83=1
amp_velcurve_63=0.600
amplitude_cc83=100
locc121=64
locc81=1
amplitude_cc81=100

<region>
sample=../Samples/db3_looped_f.flac
trigger=legato
group=9
off_by=9
offset_random=7432
pitch_keycenter=61
eg06_time1_oncc120=0.5
tune_oncc92=-15
pan_oncc82=100

<region>
sample=../Samples/db3_looped_f.flac
trigger=first
group=9
off_by=9
offset_random=7432
pitch_keycenter=61
tune_oncc92=-15
pan_oncc82=100

<region>
sample=../Samples/d3_looped_f.flac
trigger=legato
group=8
off_by=8
offset_random=6476
pitch_keycenter=62
eg06_time1_oncc120=0.5
tune_oncc92=15
pan_oncc82=-100

<region>
sample=../Samples/d3_looped_f.flac
trigger=first
group=8
off_by=8
offset_random=6476
pitch_keycenter=62
tune_oncc92=15
pan_oncc82=-100

//========================
<group>
lokey=61
hikey=61
offset=80000
ampeg_decaycc93=0.200
ampeg_releasecc93=0.500
locc83=1
amp_velcurve_63=0.600
amplitude_cc83=100
locc121=64
locc81=1
amplitude_cc81=100

<region>
sample=../Samples/d3_looped_f.flac
trigger=legato
group=9
off_by=9
offset_random=6476
pitch_keycenter=62
eg06_time1_oncc120=0.5
tune_oncc92=-15
pan_oncc82=100

<region>
sample=../Samples/d3_looped_f.flac
trigger=first
group=9
off_by=9
offset_random=6476
pitch_keycenter=62
tune_oncc92=-15
pan_oncc82=100

<region>
sample=../Samples/eb3_looped_f.flac
trigger=legato
group=8
off_by=8
offset_random=3543
pitch_keycenter=63
eg06_time1_oncc120=0.5
tune_oncc92=15
pan_oncc82=-100

<region>
sample=../Samples/eb3_looped_f.flac
trigger=first
group=8
off_by=8
offset_random=3543
pitch_keycenter=63
tune_oncc92=15
pan_oncc82=-100

//========================
<group>
lokey=62
hikey=62
offset=80000
ampeg_decaycc93=0.200
ampeg_releasecc93=0.500
locc83=1
amp_velcurve_63=0.600
amplitude_cc83=100
locc121=64
locc81=1
amplitude_cc81=100

<region>
sample=../Samples/eb3_looped_f.flac
trigger=legato
group=9
off_by=9
offset_random=3543
pitch_keycenter=63
eg06_time1_oncc120=0.5
tune_oncc92=-15
pan_oncc82=100

<region>
sample=../Samples/eb3_looped_f.flac
trigger=first
group=9
off_by=9
offset_random=3543
pitch_keycenter=63
tune_oncc92=-15
pan_oncc82=100

<region>
sample=../Samples/e3_looped_f.flac
trigger=legato
group=8
off_by=8
offset_random=8546
pitch_keycenter=64
eg06_time1_oncc120=0.5
tune_oncc92=15
pan_oncc82=-100

<region>
sample=../Samples/e3_looped_f.flac
trigger=first
group=8
off_by=8
offset_random=8546
pitch_keycenter=64
tune_oncc92=15
pan_oncc82=-100

//========================
<group>
lokey=63
hikey=63
offset=80000
ampeg_decaycc93=0.200
ampeg_releasecc93=0.500
locc83=1
amp_velcurve_63=0.600
amplitude_cc83=100
locc121=64
locc81=1
amplitude_cc81=100

<region>
sample=../Samples/e3_looped_f.flac
trigger=legato
group=9
off_by=9
offset_random=8546
pitch_keycenter=64
eg06_time1_oncc120=0.5
tune_oncc92=-15
pan_oncc82=100

<region>
sample=../Samples/e3_looped_f.flac
trigger=first
group=9
off_by=9
offset_random=8546
pitch_keycenter=64
tune_oncc92=-15
pan_oncc82=100

<region>
sample=../Samples/f3_looped_f.flac
trigger=legato
group=8
off_by=8
offset_random=9756
pitch_keycenter=65
eg06_time1_oncc120=0.5
tune_oncc92=15
pan_oncc82=-100

<region>
sample=../Samples/f3_looped_f.flac
trigger=first
group=8
off_by=8
offset_random=9756
pitch_keycenter=65
tune_oncc92=15
pan_oncc82=-100

//========================
<group>
lokey=64
hikey=64
offset=80000
ampeg_decaycc93=0.200
ampeg_releasecc93=0.500
locc83=1
amp_velcurve_63=0.600
amplitude_cc83=100
locc121=64
locc81=1
amplitude_cc81=100

<region>
sample=../Samples/f3_looped_f.flac
trigger=legato
group=9
off_by=9
offset_random=9756
pitch_keycenter=65
eg06_time1_oncc120=0.5
tune_oncc92=-15
pan_oncc82=100

<region>
sample=../Samples/f3_looped_f.flac
trigger=first
group=9
off_by=9
offset_random=9756
pitch_keycenter=65
tune_oncc92=-15
pan_oncc82=100

<region>
sample=../Samples/gb3_looped_f.flac
trigger=legato
group=8
off_by=8
offset_random=4654
pitch_keycenter=66
eg06_time1_oncc120=0.5
tune_oncc92=15
pan_oncc82=-100

<region>
sample=../Samples/gb3_looped_f.flac
trigger=first
group=8
off_by=8
offset_random=4654
pitch_keycenter=66
tune_oncc92=15
pan_oncc82=-100

//========================
<group>
lokey=65
hikey=65
offset=80000
ampeg_decaycc93=0.200
ampeg_releasecc93=0.500
locc83=1
amp_velcurve_63=0.600
amplitude_cc83=100
locc121=64
locc81=1
amplitude_cc81=100

<region>
sample=../Samples/gb3_looped_f.flac
trigger=legato
group=9
off_by=9
offset_random=4654
pitch_keycenter=66
eg06_time1_oncc120=0.5
tune_oncc92=-15
pan_oncc82=100

<region>
sample=../Samples/gb3_looped_f.flac
trigger=first
group=9
off_by=9
offset_random=4654
pitch_keycenter=66
tune_oncc92=-15
pan_oncc82=100

<region>
sample=../Samples/g3_looped_f.flac
trigger=legato
group=8
off_by=8
offset_random=8645
pitch_keycenter=67
eg06_time1_oncc120=0.5
tune_oncc92=15
pan_oncc82=-100

<region>
sample=../Samples/g3_looped_f.flac
trigger=first
group=8
off_by=8
offset_random=8645
pitch_keycenter=67
tune_oncc92=15
pan_oncc82=-100

//========================
<group>
lokey=66
hikey=66
offset=80000
ampeg_decaycc93=0.200
ampeg_releasecc93=0.500
locc83=1
amp_velcurve_63=0.600
amplitude_cc83=100
locc121=64
locc81=1
amplitude_cc81=100

<region>
sample=../Samples/g3_looped_f.flac
trigger=legato
group=9
off_by=9
offset_random=8645
pitch_keycenter=67
eg06_time1_oncc120=0.5
tune_oncc92=-15
pan_oncc82=100

<region>
sample=../Samples/g3_looped_f.flac
trigger=first
group=9
off_by=9
offset_random=8645
pitch_keycenter=67
tune_oncc92=-15
pan_oncc82=100

<region>
sample=../Samples/ab3_looped_f.flac
trigger=legato
group=8
off_by=8
offset_random=3435
pitch_keycenter=68
eg06_time1_oncc120=0.5
tune_oncc92=15
pan_oncc82=-100

<region>
sample=../Samples/ab3_looped_f.flac
trigger=first
group=8
off_by=8
offset_random=3435
pitch_keycenter=68
tune_oncc92=15
pan_oncc82=-100

//========================
<group>
lokey=67
hikey=67
offset=80000
ampeg_decaycc93=0.200
ampeg_releasecc93=0.500
locc83=1
amp_velcurve_63=0.600
amplitude_cc83=100
locc121=64
locc81=1
amplitude_cc81=100

<region>
sample=../Samples/gb3_looped_f.flac
trigger=legato
group=8
off_by=8
offset_random=5576
pitch_keycenter=66
eg06_time1_oncc120=0.5
tune_oncc92=15
pan_oncc82=-100

<region>
sample=../Samples/gb3_looped_f.flac
trigger=first
group=8
off_by=8
offset_random=5576
pitch_keycenter=66
tune_oncc92=15
pan_oncc82=-100

<region>
sample=../Samples/ab3_looped_f.flac
trigger=legato
group=9
off_by=9
offset_random=3435
pitch_keycenter=68
eg06_time1_oncc120=0.5
tune_oncc92=-15
pan_oncc82=100

<region>
sample=../Samples/ab3_looped_f.flac
trigger=first
group=9
off_by=9
offset_random=3435
pitch_keycenter=68
tune_oncc92=-15
pan_oncc82=100

//========================
<group>
lokey=68
hikey=68
offset=80000
ampeg_decaycc93=0.200
ampeg_releasecc93=0.500
locc83=1
amp_velcurve_63=0.600
amplitude_cc83=100
locc121=64
locc81=1
amplitude_cc81=100

<region>
sample=../Samples/gb3_looped_f.flac
trigger=legato
group=9
off_by=9
offset_random=5576
pitch_keycenter=66
eg06_time1_oncc120=0.5
tune_oncc92=-15
pan_oncc82=100

<region>
sample=../Samples/gb3_looped_f.flac
trigger=first
group=9
off_by=9
offset_random=5576
pitch_keycenter=66
tune_oncc92=-15
pan_oncc82=100

<region>
sample=../Samples/g3_looped_f.flac
trigger=legato
group=8
off_by=8
offset_random=9564
pitch_keycenter=67
eg06_time1_oncc120=0.5
tune_oncc92=15
pan_oncc82=-100

<region>
sample=../Samples/g3_looped_f.flac
trigger=first
group=8
off_by=8
offset_random=9564
pitch_keycenter=67
tune_oncc92=15
pan_oncc82=-100

//========================
<group>
lokey=69
hikey=69
offset=80000
ampeg_decaycc93=0.200
ampeg_releasecc93=0.500
locc83=1
amp_velcurve_63=0.600
amplitude_cc83=100
locc121=64
locc81=1
amplitude_cc81=100

<region>
sample=../Samples/g3_looped_f.flac
trigger=legato
group=9
off_by=9
offset_random=9564
pitch_keycenter=67
eg06_time1_oncc120=0.5
tune_oncc92=-15
pan_oncc82=100

<region>
sample=../Samples/g3_looped_f.flac
trigger=first
group=9
off_by=9
offset_random=9564
pitch_keycenter=67
tune_oncc92=-15
pan_oncc82=100

<region>
sample=../Samples/ab3_looped_f.flac
trigger=legato
group=8
off_by=8
offset_random=4645
pitch_keycenter=68
eg06_time1_oncc120=0.5
tune_oncc92=15
pan_oncc82=-100

<region>
sample=../Samples/ab3_looped_f.flac
trigger=first
group=8
off_by=8
offset_random=4645
pitch_keycenter=68
tune_oncc92=15
pan_oncc82=-100

//========================
<group>
lokey=70
hikey=70
offset=80000
ampeg_decaycc93=0.200
ampeg_releasecc93=0.500
locc83=1
amp_velcurve_63=0.600
amplitude_cc83=100
locc121=64
locc81=1
amplitude_cc81=100

<region>
sample=../Samples/gb3_looped_f.flac
trigger=legato
group=8
off_by=8
offset_random=3454
pitch_keycenter=66
eg06_time1_oncc120=0.5
tune_oncc92=15
pan_oncc82=-100

<region>
sample=../Samples/gb3_looped_f.flac
trigger=first
group=8
off_by=8
offset_random=3454
pitch_keycenter=66
tune_oncc92=15
pan_oncc82=-100

<region>
sample=../Samples/ab3_looped_f.flac
trigger=legato
group=9
off_by=9
offset_random=4645
pitch_keycenter=68
eg06_time1_oncc120=0.5
tune_oncc92=-15
pan_oncc82=100

<region>
sample=../Samples/ab3_looped_f.flac
trigger=first
group=9
off_by=9
offset_random=4645
pitch_keycenter=68
tune_oncc92=-15
pan_oncc82=100

//========================
<group>
lokey=71
hikey=71
offset=80000
ampeg_decaycc93=0.200
ampeg_releasecc93=0.500
locc83=1
amp_velcurve_63=0.600
amplitude_cc83=100
locc121=64
locc81=1
amplitude_cc81=100

<region>
sample=../Samples/gb3_looped_f.flac
trigger=legato
group=9
off_by=9
offset_random=3454
pitch_keycenter=66
eg06_time1_oncc120=0.5
tune_oncc92=-15
pan_oncc82=100

<region>
sample=../Samples/gb3_looped_f.flac
trigger=first
group=9
off_by=9
offset_random=3454
pitch_keycenter=66
tune_oncc92=-15
pan_oncc82=100

<region>
sample=../Samples/g3_looped_f.flac
trigger=legato
group=8
off_by=8
offset_random=5568
pitch_keycenter=67
eg06_time1_oncc120=0.5
tune_oncc92=15
pan_oncc82=-100

<region>
sample=../Samples/g3_looped_f.flac
trigger=first
group=8
off_by=8
offset_random=5568
pitch_keycenter=67
tune_oncc92=15
pan_oncc82=-100

//========================
<group>
lokey=72
hikey=72
offset=80000
ampeg_decaycc93=0.200
ampeg_releasecc93=0.500
locc83=1
amp_velcurve_63=0.600
amplitude_cc83=100
locc121=64
locc81=1
amplitude_cc81=100

<region>
sample=../Samples/g3_looped_f.flac
trigger=legato
group=9
off_by=9
offset_random=5568
pitch_keycenter=67
eg06_time1_oncc120=0.5
tune_oncc92=-15
pan_oncc82=100

<region>
sample=../Samples/g3_looped_f.flac
trigger=first
group=9
off_by=9
offset_random=5568
pitch_keycenter=67
tune_oncc92=-15
pan_oncc82=100

<region>
sample=../Samples/ab3_looped_f.flac
trigger=legato
group=8
off_by=8
offset_random=2754
pitch_keycenter=68
eg06_time1_oncc120=0.5
tune_oncc92=15
pan_oncc82=-100

<region>
sample=../Samples/ab3_looped_f.flac
trigger=first
group=8
off_by=8
offset_random=2754
pitch_keycenter=68
tune_oncc92=15
pan_oncc82=-100
